<mxfile host="app.diagrams.net" modified="2023-11-08T20:45:41.892Z" agent="Mozilla/5.0 (Windows NT 10.0; Win64; x64) AppleWebKit/537.36 (KHTML, like Gecko) Chrome/118.0.0.0 Safari/537.36" etag="VGWNHr_cStOx4JumQY5V" version="22.0.8" type="device">
  <diagram name="Página-1" id="HAZqSYYuUM7XI81nttOZ">
    <mxGraphModel dx="1050" dy="541" grid="1" gridSize="10" guides="1" tooltips="1" connect="1" arrows="1" fold="1" page="1" pageScale="1" pageWidth="827" pageHeight="1169" math="0" shadow="0">
      <root>
        <mxCell id="0" />
        <mxCell id="1" parent="0" />
        <mxCell id="xE5BTWYlB8bozgJy7pTg-1" value="&lt;font size=&quot;1&quot; style=&quot;&quot;&gt;&lt;b style=&quot;font-size: 20px;&quot;&gt;Relaciones Ternarias:&lt;/b&gt;&lt;/font&gt;" style="text;strokeColor=none;fillColor=none;align=left;verticalAlign=middle;spacingLeft=4;spacingRight=4;overflow=hidden;points=[[0,0.5],[1,0.5]];portConstraint=eastwest;rotatable=0;whiteSpace=wrap;html=1;" vertex="1" parent="1">
          <mxGeometry x="60" y="10" width="230" height="30" as="geometry" />
        </mxCell>
        <mxCell id="xE5BTWYlB8bozgJy7pTg-2" value="&lt;font style=&quot;font-size: 20px;&quot;&gt;&lt;b&gt;A&lt;/b&gt;&lt;/font&gt;" style="rounded=0;whiteSpace=wrap;html=1;fillColor=#d5e8d4;strokeColor=#82b366;" vertex="1" parent="1">
          <mxGeometry x="60" y="85" width="50" height="50" as="geometry" />
        </mxCell>
        <mxCell id="xE5BTWYlB8bozgJy7pTg-3" value="&lt;span style=&quot;font-size: 20px;&quot;&gt;&lt;b&gt;B&lt;/b&gt;&lt;/span&gt;" style="rounded=0;whiteSpace=wrap;html=1;fillColor=#f8cecc;strokeColor=#b85450;" vertex="1" parent="1">
          <mxGeometry x="250" y="85" width="50" height="50" as="geometry" />
        </mxCell>
        <mxCell id="xE5BTWYlB8bozgJy7pTg-4" value="&lt;font style=&quot;font-size: 20px;&quot;&gt;&lt;b&gt;R&lt;/b&gt;&lt;/font&gt;" style="shape=rhombus;perimeter=rhombusPerimeter;whiteSpace=wrap;html=1;align=center;fillColor=#f5f5f5;strokeColor=#666666;fontColor=#333333;" vertex="1" parent="1">
          <mxGeometry x="150" y="80" width="70" height="60" as="geometry" />
        </mxCell>
        <mxCell id="xE5BTWYlB8bozgJy7pTg-5" value="" style="endArrow=none;html=1;rounded=0;exitX=1;exitY=0.5;exitDx=0;exitDy=0;entryX=0;entryY=0.5;entryDx=0;entryDy=0;" edge="1" parent="1" source="xE5BTWYlB8bozgJy7pTg-4" target="xE5BTWYlB8bozgJy7pTg-3">
          <mxGeometry relative="1" as="geometry">
            <mxPoint x="330" y="305" as="sourcePoint" />
            <mxPoint x="490" y="305" as="targetPoint" />
          </mxGeometry>
        </mxCell>
        <mxCell id="xE5BTWYlB8bozgJy7pTg-6" value="N" style="resizable=0;html=1;whiteSpace=wrap;align=right;verticalAlign=bottom;" connectable="0" vertex="1" parent="xE5BTWYlB8bozgJy7pTg-5">
          <mxGeometry x="1" relative="1" as="geometry" />
        </mxCell>
        <mxCell id="xE5BTWYlB8bozgJy7pTg-7" value="" style="endArrow=none;html=1;rounded=0;exitX=1;exitY=0.5;exitDx=0;exitDy=0;entryX=0;entryY=0.5;entryDx=0;entryDy=0;" edge="1" parent="1" source="xE5BTWYlB8bozgJy7pTg-2" target="xE5BTWYlB8bozgJy7pTg-4">
          <mxGeometry relative="1" as="geometry">
            <mxPoint x="230" y="120" as="sourcePoint" />
            <mxPoint x="260" y="120" as="targetPoint" />
          </mxGeometry>
        </mxCell>
        <mxCell id="xE5BTWYlB8bozgJy7pTg-8" value="N" style="resizable=0;html=1;whiteSpace=wrap;align=right;verticalAlign=bottom;" connectable="0" vertex="1" parent="xE5BTWYlB8bozgJy7pTg-7">
          <mxGeometry x="1" relative="1" as="geometry" />
        </mxCell>
        <mxCell id="xE5BTWYlB8bozgJy7pTg-9" value="&lt;b style=&quot;border-color: var(--border-color); font-size: 14px;&quot;&gt;&lt;font color=&quot;#9933ff&quot;&gt;&lt;b style=&quot;border-color: var(--border-color);&quot;&gt;A = &lt;u&gt;a0&lt;/u&gt; + ...&lt;br&gt;&lt;/b&gt;B = &lt;u&gt;b0&lt;/u&gt; + ...&lt;br&gt;C = &lt;u&gt;c0&lt;/u&gt; + ...&lt;br&gt;&lt;/font&gt;&lt;/b&gt;&lt;span style=&quot;font-size: 14px;&quot;&gt;&lt;b&gt;&lt;font color=&quot;#9933ff&quot;&gt;R = &lt;u&gt;a0+b0+c0&lt;/u&gt; + ...&lt;br&gt;&lt;span style=&quot;white-space: pre;&quot;&gt;&#x9;&lt;/span&gt;C.Aj: a0, b0, c0&lt;/font&gt;&lt;br&gt;&lt;/b&gt;&lt;/span&gt;" style="text;strokeColor=none;fillColor=none;align=left;verticalAlign=middle;spacingLeft=4;spacingRight=4;overflow=hidden;points=[[0,0.5],[1,0.5]];portConstraint=eastwest;rotatable=0;whiteSpace=wrap;html=1;" vertex="1" parent="1">
          <mxGeometry x="61" y="242" width="169" height="89" as="geometry" />
        </mxCell>
        <mxCell id="xE5BTWYlB8bozgJy7pTg-10" value="&lt;font style=&quot;font-size: 20px;&quot;&gt;&lt;b&gt;A&lt;/b&gt;&lt;/font&gt;" style="rounded=0;whiteSpace=wrap;html=1;fillColor=#d5e8d4;strokeColor=#82b366;" vertex="1" parent="1">
          <mxGeometry x="390" y="90" width="50" height="50" as="geometry" />
        </mxCell>
        <mxCell id="xE5BTWYlB8bozgJy7pTg-11" value="&lt;span style=&quot;font-size: 20px;&quot;&gt;&lt;b&gt;B&lt;/b&gt;&lt;/span&gt;" style="rounded=0;whiteSpace=wrap;html=1;fillColor=#f8cecc;strokeColor=#b85450;" vertex="1" parent="1">
          <mxGeometry x="580" y="90" width="50" height="50" as="geometry" />
        </mxCell>
        <mxCell id="xE5BTWYlB8bozgJy7pTg-12" value="&lt;font style=&quot;font-size: 20px;&quot;&gt;&lt;b&gt;R&lt;/b&gt;&lt;/font&gt;" style="shape=rhombus;perimeter=rhombusPerimeter;whiteSpace=wrap;html=1;align=center;fillColor=#f5f5f5;strokeColor=#666666;fontColor=#333333;" vertex="1" parent="1">
          <mxGeometry x="480" y="85" width="70" height="60" as="geometry" />
        </mxCell>
        <mxCell id="xE5BTWYlB8bozgJy7pTg-13" value="&lt;font color=&quot;#9933ff&quot; style=&quot;font-size: 14px;&quot;&gt;&lt;b&gt;&lt;font style=&quot;font-size: 14px;&quot;&gt;&lt;span style=&quot;border-color: var(--border-color);&quot;&gt;&lt;span style=&quot;border-color: var(--border-color);&quot;&gt;A = &lt;u style=&quot;&quot;&gt;a0&lt;/u&gt; + ...&lt;br&gt;&lt;/span&gt;B = &lt;u style=&quot;&quot;&gt;b0&lt;/u&gt; + ...&lt;br&gt;C = &lt;u&gt;c0&lt;/u&gt; +...&lt;br&gt;&lt;/span&gt;R = &lt;u&gt;a0+b0+c0&lt;/u&gt; + ...&lt;br&gt;&lt;span style=&quot;&quot;&gt;&lt;span style=&quot;white-space: pre;&quot;&gt;&amp;nbsp;&amp;nbsp;&amp;nbsp;&amp;nbsp;&lt;/span&gt;&lt;/span&gt;C.Aj: a0, b0,c0&lt;br&gt;&lt;span style=&quot;line-height: 107%;&quot;&gt;ASERCIÓN 1:&lt;/span&gt;&lt;span style=&quot;font-family: Arial, sans-serif;&quot;&gt;&amp;nbsp;A&amp;nbsp;&lt;/span&gt;&lt;span style=&quot;font-family: &amp;quot;Cambria Math&amp;quot;, serif;&quot;&gt;⊆&lt;/span&gt;&lt;span style=&quot;line-height: 107%;&quot;&gt;&amp;nbsp;R&lt;br&gt;&lt;/span&gt;&lt;/font&gt;ASERCIÓN 2:&lt;span style=&quot;border-color: var(--border-color); font-family: Arial, sans-serif;&quot;&gt;&amp;nbsp;B&amp;nbsp;&lt;/span&gt;&lt;span style=&quot;border-color: var(--border-color); font-family: &amp;quot;Cambria Math&amp;quot;, serif;&quot;&gt;⊆&lt;/span&gt;&lt;span style=&quot;border-color: var(--border-color); line-height: 16.05px;&quot;&gt;&amp;nbsp;R&lt;br&gt;&lt;/span&gt;&lt;/b&gt;&lt;/font&gt;&lt;b style=&quot;border-color: var(--border-color); color: rgb(153, 51, 255); font-size: 14px;&quot;&gt;ASERCIÓN 3: C&amp;nbsp;&lt;span style=&quot;border-color: var(--border-color); font-family: &amp;quot;Cambria Math&amp;quot;, serif;&quot;&gt;⊆&lt;/span&gt;&lt;span style=&quot;border-color: var(--border-color); line-height: 16.05px;&quot;&gt;&amp;nbsp;R&lt;/span&gt;&lt;/b&gt;&lt;span style=&quot;font-size: 14px;&quot;&gt;&lt;b&gt;&lt;br&gt;&lt;/b&gt;&lt;/span&gt;" style="text;strokeColor=none;fillColor=none;align=left;verticalAlign=middle;spacingLeft=4;spacingRight=4;overflow=hidden;points=[[0,0.5],[1,0.5]];portConstraint=eastwest;rotatable=0;whiteSpace=wrap;html=1;" vertex="1" parent="1">
          <mxGeometry x="391" y="240" width="159" height="140" as="geometry" />
        </mxCell>
        <mxCell id="xE5BTWYlB8bozgJy7pTg-14" value="" style="shape=link;html=1;rounded=0;exitX=1;exitY=0.5;exitDx=0;exitDy=0;" edge="1" parent="1" source="xE5BTWYlB8bozgJy7pTg-10" target="xE5BTWYlB8bozgJy7pTg-12">
          <mxGeometry relative="1" as="geometry">
            <mxPoint x="330" y="305" as="sourcePoint" />
            <mxPoint x="490" y="305" as="targetPoint" />
          </mxGeometry>
        </mxCell>
        <mxCell id="xE5BTWYlB8bozgJy7pTg-15" value="N" style="resizable=0;html=1;whiteSpace=wrap;align=right;verticalAlign=bottom;" connectable="0" vertex="1" parent="xE5BTWYlB8bozgJy7pTg-14">
          <mxGeometry x="1" relative="1" as="geometry" />
        </mxCell>
        <mxCell id="xE5BTWYlB8bozgJy7pTg-16" value="" style="shape=link;html=1;rounded=0;exitX=1;exitY=0.5;exitDx=0;exitDy=0;entryX=0;entryY=0.5;entryDx=0;entryDy=0;" edge="1" parent="1" source="xE5BTWYlB8bozgJy7pTg-12" target="xE5BTWYlB8bozgJy7pTg-11">
          <mxGeometry relative="1" as="geometry">
            <mxPoint x="450" y="125" as="sourcePoint" />
            <mxPoint x="490" y="125" as="targetPoint" />
          </mxGeometry>
        </mxCell>
        <mxCell id="xE5BTWYlB8bozgJy7pTg-17" value="N" style="resizable=0;html=1;whiteSpace=wrap;align=right;verticalAlign=bottom;" connectable="0" vertex="1" parent="xE5BTWYlB8bozgJy7pTg-16">
          <mxGeometry x="1" relative="1" as="geometry" />
        </mxCell>
        <mxCell id="xE5BTWYlB8bozgJy7pTg-18" value="&lt;span style=&quot;font-size: 20px;&quot;&gt;&lt;b&gt;C&lt;/b&gt;&lt;/span&gt;" style="rounded=0;whiteSpace=wrap;html=1;fillColor=#fff2cc;strokeColor=#d6b656;" vertex="1" parent="1">
          <mxGeometry x="160" y="180" width="50" height="50" as="geometry" />
        </mxCell>
        <mxCell id="xE5BTWYlB8bozgJy7pTg-21" value="" style="endArrow=none;html=1;rounded=0;exitX=0.5;exitY=1;exitDx=0;exitDy=0;entryX=0.5;entryY=0;entryDx=0;entryDy=0;" edge="1" parent="1" source="xE5BTWYlB8bozgJy7pTg-4" target="xE5BTWYlB8bozgJy7pTg-18">
          <mxGeometry relative="1" as="geometry">
            <mxPoint x="230" y="120" as="sourcePoint" />
            <mxPoint x="260" y="120" as="targetPoint" />
          </mxGeometry>
        </mxCell>
        <mxCell id="xE5BTWYlB8bozgJy7pTg-22" value="N" style="resizable=0;html=1;whiteSpace=wrap;align=right;verticalAlign=bottom;" connectable="0" vertex="1" parent="xE5BTWYlB8bozgJy7pTg-21">
          <mxGeometry x="1" relative="1" as="geometry" />
        </mxCell>
        <mxCell id="xE5BTWYlB8bozgJy7pTg-23" value="&lt;span style=&quot;font-size: 20px;&quot;&gt;&lt;b&gt;C&lt;/b&gt;&lt;/span&gt;" style="rounded=0;whiteSpace=wrap;html=1;fillColor=#fff2cc;strokeColor=#d6b656;" vertex="1" parent="1">
          <mxGeometry x="490" y="180" width="50" height="50" as="geometry" />
        </mxCell>
        <mxCell id="xE5BTWYlB8bozgJy7pTg-24" value="" style="shape=link;html=1;rounded=0;exitX=0.5;exitY=1;exitDx=0;exitDy=0;entryX=0.5;entryY=0;entryDx=0;entryDy=0;" edge="1" parent="1" source="xE5BTWYlB8bozgJy7pTg-12" target="xE5BTWYlB8bozgJy7pTg-23">
          <mxGeometry relative="1" as="geometry">
            <mxPoint x="560" y="125" as="sourcePoint" />
            <mxPoint x="590" y="125" as="targetPoint" />
          </mxGeometry>
        </mxCell>
        <mxCell id="xE5BTWYlB8bozgJy7pTg-25" value="N" style="resizable=0;html=1;whiteSpace=wrap;align=right;verticalAlign=bottom;" connectable="0" vertex="1" parent="xE5BTWYlB8bozgJy7pTg-24">
          <mxGeometry x="1" relative="1" as="geometry" />
        </mxCell>
        <mxCell id="xE5BTWYlB8bozgJy7pTg-26" value="&lt;font color=&quot;#ff3333&quot;&gt;&lt;b&gt;Tantas aserciones como cardinalidades mínimas1.&lt;/b&gt;&lt;/font&gt;" style="text;strokeColor=none;fillColor=none;align=left;verticalAlign=middle;spacingLeft=4;spacingRight=4;overflow=hidden;points=[[0,0.5],[1,0.5]];portConstraint=eastwest;rotatable=0;whiteSpace=wrap;html=1;" vertex="1" parent="1">
          <mxGeometry x="550" y="331" width="170" height="40" as="geometry" />
        </mxCell>
        <mxCell id="xE5BTWYlB8bozgJy7pTg-27" value="&lt;font style=&quot;font-size: 20px;&quot;&gt;&lt;b&gt;A&lt;/b&gt;&lt;/font&gt;" style="rounded=0;whiteSpace=wrap;html=1;fillColor=#d5e8d4;strokeColor=#82b366;" vertex="1" parent="1">
          <mxGeometry x="60" y="414" width="50" height="50" as="geometry" />
        </mxCell>
        <mxCell id="xE5BTWYlB8bozgJy7pTg-28" value="&lt;span style=&quot;font-size: 20px;&quot;&gt;&lt;b&gt;B&lt;/b&gt;&lt;/span&gt;" style="rounded=0;whiteSpace=wrap;html=1;fillColor=#f8cecc;strokeColor=#b85450;" vertex="1" parent="1">
          <mxGeometry x="250" y="414" width="50" height="50" as="geometry" />
        </mxCell>
        <mxCell id="xE5BTWYlB8bozgJy7pTg-29" value="&lt;font style=&quot;font-size: 20px;&quot;&gt;&lt;b&gt;R&lt;/b&gt;&lt;/font&gt;" style="shape=rhombus;perimeter=rhombusPerimeter;whiteSpace=wrap;html=1;align=center;fillColor=#f5f5f5;strokeColor=#666666;fontColor=#333333;" vertex="1" parent="1">
          <mxGeometry x="150" y="409" width="70" height="60" as="geometry" />
        </mxCell>
        <mxCell id="xE5BTWYlB8bozgJy7pTg-30" value="" style="endArrow=none;html=1;rounded=0;exitX=1;exitY=0.5;exitDx=0;exitDy=0;entryX=0;entryY=0.5;entryDx=0;entryDy=0;" edge="1" parent="1" source="xE5BTWYlB8bozgJy7pTg-29" target="xE5BTWYlB8bozgJy7pTg-28">
          <mxGeometry relative="1" as="geometry">
            <mxPoint x="330" y="634" as="sourcePoint" />
            <mxPoint x="490" y="634" as="targetPoint" />
          </mxGeometry>
        </mxCell>
        <mxCell id="xE5BTWYlB8bozgJy7pTg-31" value="N" style="resizable=0;html=1;whiteSpace=wrap;align=right;verticalAlign=bottom;" connectable="0" vertex="1" parent="xE5BTWYlB8bozgJy7pTg-30">
          <mxGeometry x="1" relative="1" as="geometry" />
        </mxCell>
        <mxCell id="xE5BTWYlB8bozgJy7pTg-32" value="" style="endArrow=none;html=1;rounded=0;exitX=1;exitY=0.5;exitDx=0;exitDy=0;entryX=0;entryY=0.5;entryDx=0;entryDy=0;" edge="1" parent="1" source="xE5BTWYlB8bozgJy7pTg-27" target="xE5BTWYlB8bozgJy7pTg-29">
          <mxGeometry relative="1" as="geometry">
            <mxPoint x="230" y="449" as="sourcePoint" />
            <mxPoint x="260" y="449" as="targetPoint" />
          </mxGeometry>
        </mxCell>
        <mxCell id="xE5BTWYlB8bozgJy7pTg-33" value="N" style="resizable=0;html=1;whiteSpace=wrap;align=right;verticalAlign=bottom;" connectable="0" vertex="1" parent="xE5BTWYlB8bozgJy7pTg-32">
          <mxGeometry x="1" relative="1" as="geometry" />
        </mxCell>
        <mxCell id="xE5BTWYlB8bozgJy7pTg-34" value="&lt;span style=&quot;border-color: var(--border-color); font-size: 14px;&quot;&gt;&lt;font style=&quot;&quot; color=&quot;#9933ff&quot;&gt;&lt;b&gt;&lt;span style=&quot;border-color: var(--border-color);&quot;&gt;A = &lt;u style=&quot;&quot;&gt;a0&lt;/u&gt; + ...&lt;br&gt;&lt;/span&gt;B = &lt;u style=&quot;&quot;&gt;b0&lt;/u&gt; + ...&lt;br&gt;C = &lt;u style=&quot;&quot;&gt;c0&lt;/u&gt; + ...&lt;br&gt;&lt;/b&gt;&lt;/font&gt;&lt;/span&gt;&lt;span style=&quot;font-size: 14px;&quot;&gt;&lt;font style=&quot;&quot; color=&quot;#9933ff&quot;&gt;&lt;b&gt;R = &lt;u style=&quot;&quot;&gt;a0+b0&lt;/u&gt; + c0 + ...&lt;br&gt;&lt;span style=&quot;white-space: pre;&quot;&gt;&#x9;&lt;/span&gt;C.Aj: a0, b0, c0&lt;br&gt;&lt;span style=&quot;white-space: pre;&quot;&gt;&#x9;&lt;/span&gt;NotNull: c0&lt;/b&gt;&lt;/font&gt;&lt;br&gt;&lt;/span&gt;" style="text;strokeColor=none;fillColor=none;align=left;verticalAlign=middle;spacingLeft=4;spacingRight=4;overflow=hidden;points=[[0,0.5],[1,0.5]];portConstraint=eastwest;rotatable=0;whiteSpace=wrap;html=1;" vertex="1" parent="1">
          <mxGeometry x="61" y="562" width="169" height="119" as="geometry" />
        </mxCell>
        <mxCell id="xE5BTWYlB8bozgJy7pTg-35" value="&lt;font style=&quot;font-size: 20px;&quot;&gt;&lt;b&gt;A&lt;/b&gt;&lt;/font&gt;" style="rounded=0;whiteSpace=wrap;html=1;fillColor=#d5e8d4;strokeColor=#82b366;" vertex="1" parent="1">
          <mxGeometry x="390" y="419" width="50" height="50" as="geometry" />
        </mxCell>
        <mxCell id="xE5BTWYlB8bozgJy7pTg-36" value="&lt;span style=&quot;font-size: 20px;&quot;&gt;&lt;b&gt;B&lt;/b&gt;&lt;/span&gt;" style="rounded=0;whiteSpace=wrap;html=1;fillColor=#f8cecc;strokeColor=#b85450;" vertex="1" parent="1">
          <mxGeometry x="580" y="419" width="50" height="50" as="geometry" />
        </mxCell>
        <mxCell id="xE5BTWYlB8bozgJy7pTg-37" value="&lt;font style=&quot;font-size: 20px;&quot;&gt;&lt;b&gt;R&lt;/b&gt;&lt;/font&gt;" style="shape=rhombus;perimeter=rhombusPerimeter;whiteSpace=wrap;html=1;align=center;fillColor=#f5f5f5;strokeColor=#666666;fontColor=#333333;" vertex="1" parent="1">
          <mxGeometry x="480" y="414" width="70" height="60" as="geometry" />
        </mxCell>
        <mxCell id="xE5BTWYlB8bozgJy7pTg-38" value="&lt;font style=&quot;font-size: 14px;&quot; color=&quot;#9933ff&quot;&gt;&lt;b&gt;&lt;font style=&quot;border-color: var(--border-color); font-size: 14px;&quot;&gt;&lt;span style=&quot;border-color: var(--border-color);&quot;&gt;&lt;span style=&quot;border-color: var(--border-color); font-size: 14px;&quot;&gt;A =&amp;nbsp;&lt;u style=&quot;border-color: var(--border-color);&quot;&gt;a0&lt;/u&gt;&amp;nbsp;+ ...&lt;br style=&quot;border-color: var(--border-color);&quot;&gt;&lt;/span&gt;B =&amp;nbsp;&lt;u style=&quot;border-color: var(--border-color);&quot;&gt;b0&lt;/u&gt;&amp;nbsp;+ ...&lt;br style=&quot;border-color: var(--border-color);&quot;&gt;C =&amp;nbsp;&lt;u style=&quot;border-color: var(--border-color);&quot;&gt;c0&lt;/u&gt;&amp;nbsp;+ ...&lt;br style=&quot;border-color: var(--border-color);&quot;&gt;&lt;/span&gt;&lt;/font&gt;&lt;span style=&quot;border-color: var(--border-color); font-size: 14px;&quot;&gt;&lt;/span&gt;&lt;span style=&quot;border-color: var(--border-color); font-size: 14px;&quot;&gt;&lt;font style=&quot;border-color: var(--border-color); font-size: 14px;&quot;&gt;&lt;span style=&quot;border-color: var(--border-color);&quot;&gt;R =&amp;nbsp;&lt;u style=&quot;border-color: var(--border-color);&quot;&gt;a0+b0&lt;/u&gt;&amp;nbsp;+ c0 + ...&lt;br&gt;&lt;span style=&quot;white-space: pre;&quot;&gt;&#x9;&lt;/span&gt;C.Aj: a0, b0, c0&lt;br&gt;&lt;span style=&quot;white-space: pre;&quot;&gt;&#x9;&lt;/span&gt;NotNull: c0&lt;/span&gt;&lt;/font&gt;&lt;/span&gt;&lt;font style=&quot;font-size: 14px;&quot;&gt;&lt;font style=&quot;font-size: 14px;&quot;&gt;&lt;br&gt;&lt;span style=&quot;line-height: 107%;&quot;&gt;ASERCIÓN 1:&lt;/span&gt;&lt;span style=&quot;font-family: Arial, sans-serif;&quot;&gt;&amp;nbsp;A&amp;nbsp;&lt;/span&gt;&lt;span style=&quot;font-family: &amp;quot;Cambria Math&amp;quot;, serif;&quot;&gt;⊆&lt;/span&gt;&lt;span style=&quot;line-height: 107%;&quot;&gt;&amp;nbsp;R&lt;br&gt;&lt;/span&gt;&lt;/font&gt;ASERCIÓN 2:&lt;span style=&quot;border-color: var(--border-color); font-family: Arial, sans-serif;&quot;&gt;&amp;nbsp;B&amp;nbsp;&lt;/span&gt;&lt;span style=&quot;border-color: var(--border-color); font-family: &amp;quot;Cambria Math&amp;quot;, serif;&quot;&gt;⊆&lt;/span&gt;&lt;span style=&quot;border-color: var(--border-color); line-height: 16.05px;&quot;&gt;&amp;nbsp;R&lt;br&gt;&lt;/span&gt;&lt;/font&gt;&lt;span style=&quot;border-color: var(--border-color); font-size: 14px;&quot;&gt;ASERCIÓN 3: C&amp;nbsp;&lt;span style=&quot;border-color: var(--border-color); font-family: &amp;quot;Cambria Math&amp;quot;, serif;&quot;&gt;⊆&lt;/span&gt;&lt;span style=&quot;border-color: var(--border-color); line-height: 16.05px;&quot;&gt;&amp;nbsp;R&lt;/span&gt;&lt;/span&gt;&lt;/b&gt;&lt;/font&gt;&lt;span style=&quot;font-size: 14px;&quot;&gt;&lt;b&gt;&lt;br&gt;&lt;/b&gt;&lt;/span&gt;" style="text;strokeColor=none;fillColor=none;align=left;verticalAlign=middle;spacingLeft=4;spacingRight=4;overflow=hidden;points=[[0,0.5],[1,0.5]];portConstraint=eastwest;rotatable=0;whiteSpace=wrap;html=1;" vertex="1" parent="1">
          <mxGeometry x="350" y="567" width="200" height="160" as="geometry" />
        </mxCell>
        <mxCell id="xE5BTWYlB8bozgJy7pTg-39" value="" style="shape=link;html=1;rounded=0;exitX=1;exitY=0.5;exitDx=0;exitDy=0;" edge="1" parent="1" source="xE5BTWYlB8bozgJy7pTg-35" target="xE5BTWYlB8bozgJy7pTg-37">
          <mxGeometry relative="1" as="geometry">
            <mxPoint x="330" y="634" as="sourcePoint" />
            <mxPoint x="490" y="634" as="targetPoint" />
          </mxGeometry>
        </mxCell>
        <mxCell id="xE5BTWYlB8bozgJy7pTg-40" value="N" style="resizable=0;html=1;whiteSpace=wrap;align=right;verticalAlign=bottom;" connectable="0" vertex="1" parent="xE5BTWYlB8bozgJy7pTg-39">
          <mxGeometry x="1" relative="1" as="geometry" />
        </mxCell>
        <mxCell id="xE5BTWYlB8bozgJy7pTg-41" value="" style="shape=link;html=1;rounded=0;exitX=1;exitY=0.5;exitDx=0;exitDy=0;entryX=0;entryY=0.5;entryDx=0;entryDy=0;" edge="1" parent="1" source="xE5BTWYlB8bozgJy7pTg-37" target="xE5BTWYlB8bozgJy7pTg-36">
          <mxGeometry relative="1" as="geometry">
            <mxPoint x="450" y="454" as="sourcePoint" />
            <mxPoint x="490" y="454" as="targetPoint" />
          </mxGeometry>
        </mxCell>
        <mxCell id="xE5BTWYlB8bozgJy7pTg-42" value="N" style="resizable=0;html=1;whiteSpace=wrap;align=right;verticalAlign=bottom;" connectable="0" vertex="1" parent="xE5BTWYlB8bozgJy7pTg-41">
          <mxGeometry x="1" relative="1" as="geometry" />
        </mxCell>
        <mxCell id="xE5BTWYlB8bozgJy7pTg-43" value="&lt;span style=&quot;font-size: 20px;&quot;&gt;&lt;b&gt;C&lt;/b&gt;&lt;/span&gt;" style="rounded=0;whiteSpace=wrap;html=1;fillColor=#fff2cc;strokeColor=#d6b656;" vertex="1" parent="1">
          <mxGeometry x="160" y="509" width="50" height="50" as="geometry" />
        </mxCell>
        <mxCell id="xE5BTWYlB8bozgJy7pTg-46" value="&lt;span style=&quot;font-size: 20px;&quot;&gt;&lt;b&gt;C&lt;/b&gt;&lt;/span&gt;" style="rounded=0;whiteSpace=wrap;html=1;fillColor=#fff2cc;strokeColor=#d6b656;" vertex="1" parent="1">
          <mxGeometry x="490" y="509" width="50" height="50" as="geometry" />
        </mxCell>
        <mxCell id="xE5BTWYlB8bozgJy7pTg-49" value="&lt;font color=&quot;#ff3333&quot;&gt;&lt;b&gt;Tantas aserciones como cardinalidades mínimas1.&lt;/b&gt;&lt;/font&gt;" style="text;strokeColor=none;fillColor=none;align=left;verticalAlign=middle;spacingLeft=4;spacingRight=4;overflow=hidden;points=[[0,0.5],[1,0.5]];portConstraint=eastwest;rotatable=0;whiteSpace=wrap;html=1;" vertex="1" parent="1">
          <mxGeometry x="550" y="677" width="170" height="40" as="geometry" />
        </mxCell>
        <mxCell id="xE5BTWYlB8bozgJy7pTg-50" value="" style="endArrow=none;html=1;rounded=0;exitX=0.5;exitY=1;exitDx=0;exitDy=0;entryX=0.5;entryY=0;entryDx=0;entryDy=0;" edge="1" parent="1" source="xE5BTWYlB8bozgJy7pTg-29" target="xE5BTWYlB8bozgJy7pTg-43">
          <mxGeometry relative="1" as="geometry">
            <mxPoint x="330" y="480" as="sourcePoint" />
            <mxPoint x="490" y="480" as="targetPoint" />
          </mxGeometry>
        </mxCell>
        <mxCell id="xE5BTWYlB8bozgJy7pTg-51" value="1" style="resizable=0;html=1;whiteSpace=wrap;align=right;verticalAlign=bottom;" connectable="0" vertex="1" parent="xE5BTWYlB8bozgJy7pTg-50">
          <mxGeometry x="1" relative="1" as="geometry" />
        </mxCell>
        <mxCell id="xE5BTWYlB8bozgJy7pTg-56" value="" style="shape=link;html=1;rounded=0;entryX=0.5;entryY=0;entryDx=0;entryDy=0;exitX=0.5;exitY=1;exitDx=0;exitDy=0;" edge="1" parent="1" source="xE5BTWYlB8bozgJy7pTg-37" target="xE5BTWYlB8bozgJy7pTg-46">
          <mxGeometry relative="1" as="geometry">
            <mxPoint x="330" y="480" as="sourcePoint" />
            <mxPoint x="490" y="480" as="targetPoint" />
          </mxGeometry>
        </mxCell>
        <mxCell id="xE5BTWYlB8bozgJy7pTg-57" value="1" style="resizable=0;html=1;whiteSpace=wrap;align=right;verticalAlign=bottom;" connectable="0" vertex="1" parent="xE5BTWYlB8bozgJy7pTg-56">
          <mxGeometry x="1" relative="1" as="geometry" />
        </mxCell>
        <mxCell id="xE5BTWYlB8bozgJy7pTg-58" value="&lt;font style=&quot;font-size: 20px;&quot;&gt;&lt;b&gt;A&lt;/b&gt;&lt;/font&gt;" style="rounded=0;whiteSpace=wrap;html=1;fillColor=#d5e8d4;strokeColor=#82b366;" vertex="1" parent="1">
          <mxGeometry x="60" y="760" width="50" height="50" as="geometry" />
        </mxCell>
        <mxCell id="xE5BTWYlB8bozgJy7pTg-59" value="&lt;span style=&quot;font-size: 20px;&quot;&gt;&lt;b&gt;B&lt;/b&gt;&lt;/span&gt;" style="rounded=0;whiteSpace=wrap;html=1;fillColor=#f8cecc;strokeColor=#b85450;" vertex="1" parent="1">
          <mxGeometry x="250" y="760" width="50" height="50" as="geometry" />
        </mxCell>
        <mxCell id="xE5BTWYlB8bozgJy7pTg-60" value="&lt;font style=&quot;font-size: 20px;&quot;&gt;&lt;b&gt;R&lt;/b&gt;&lt;/font&gt;" style="shape=rhombus;perimeter=rhombusPerimeter;whiteSpace=wrap;html=1;align=center;fillColor=#f5f5f5;strokeColor=#666666;fontColor=#333333;" vertex="1" parent="1">
          <mxGeometry x="150" y="755" width="70" height="60" as="geometry" />
        </mxCell>
        <mxCell id="xE5BTWYlB8bozgJy7pTg-63" value="" style="endArrow=none;html=1;rounded=0;exitX=1;exitY=0.5;exitDx=0;exitDy=0;entryX=0;entryY=0.5;entryDx=0;entryDy=0;" edge="1" parent="1" source="xE5BTWYlB8bozgJy7pTg-58" target="xE5BTWYlB8bozgJy7pTg-60">
          <mxGeometry relative="1" as="geometry">
            <mxPoint x="230" y="795" as="sourcePoint" />
            <mxPoint x="260" y="795" as="targetPoint" />
          </mxGeometry>
        </mxCell>
        <mxCell id="xE5BTWYlB8bozgJy7pTg-64" value="N" style="resizable=0;html=1;whiteSpace=wrap;align=right;verticalAlign=bottom;" connectable="0" vertex="1" parent="xE5BTWYlB8bozgJy7pTg-63">
          <mxGeometry x="1" relative="1" as="geometry" />
        </mxCell>
        <mxCell id="xE5BTWYlB8bozgJy7pTg-65" value="&lt;span style=&quot;border-color: var(--border-color); font-size: 14px;&quot;&gt;&lt;font style=&quot;&quot; color=&quot;#9933ff&quot;&gt;&lt;b&gt;&lt;span style=&quot;border-color: var(--border-color);&quot;&gt;A = &lt;u style=&quot;&quot;&gt;a0&lt;/u&gt; + ...&lt;br&gt;&lt;/span&gt;B = &lt;u style=&quot;&quot;&gt;b0&lt;/u&gt; + ...&lt;br&gt;C = &lt;u style=&quot;&quot;&gt;c0&lt;/u&gt; + ...&lt;br&gt;&lt;/b&gt;&lt;/font&gt;&lt;/span&gt;&lt;span style=&quot;font-size: 14px;&quot;&gt;&lt;font style=&quot;&quot; color=&quot;#9933ff&quot;&gt;&lt;b&gt;R = &lt;u style=&quot;&quot;&gt;a0+b0&lt;/u&gt; + c0 + ...&lt;br&gt;&lt;span style=&quot;white-space: pre;&quot;&gt;&#x9;&lt;/span&gt;C.Aj: a0, b0, c0&lt;br&gt;&lt;span style=&quot;white-space: pre;&quot;&gt;&#x9;&lt;/span&gt;NotNull: c0&lt;/b&gt;&lt;/font&gt;&lt;br&gt;&lt;/span&gt;" style="text;strokeColor=none;fillColor=none;align=left;verticalAlign=middle;spacingLeft=4;spacingRight=4;overflow=hidden;points=[[0,0.5],[1,0.5]];portConstraint=eastwest;rotatable=0;whiteSpace=wrap;html=1;" vertex="1" parent="1">
          <mxGeometry x="61" y="908" width="169" height="119" as="geometry" />
        </mxCell>
        <mxCell id="xE5BTWYlB8bozgJy7pTg-66" value="&lt;font style=&quot;font-size: 20px;&quot;&gt;&lt;b&gt;A&lt;/b&gt;&lt;/font&gt;" style="rounded=0;whiteSpace=wrap;html=1;fillColor=#d5e8d4;strokeColor=#82b366;" vertex="1" parent="1">
          <mxGeometry x="390" y="765" width="50" height="50" as="geometry" />
        </mxCell>
        <mxCell id="xE5BTWYlB8bozgJy7pTg-67" value="&lt;span style=&quot;font-size: 20px;&quot;&gt;&lt;b&gt;B&lt;/b&gt;&lt;/span&gt;" style="rounded=0;whiteSpace=wrap;html=1;fillColor=#f8cecc;strokeColor=#b85450;" vertex="1" parent="1">
          <mxGeometry x="580" y="765" width="50" height="50" as="geometry" />
        </mxCell>
        <mxCell id="xE5BTWYlB8bozgJy7pTg-68" value="&lt;font style=&quot;font-size: 20px;&quot;&gt;&lt;b&gt;R&lt;/b&gt;&lt;/font&gt;" style="shape=rhombus;perimeter=rhombusPerimeter;whiteSpace=wrap;html=1;align=center;fillColor=#f5f5f5;strokeColor=#666666;fontColor=#333333;" vertex="1" parent="1">
          <mxGeometry x="480" y="760" width="70" height="60" as="geometry" />
        </mxCell>
        <mxCell id="xE5BTWYlB8bozgJy7pTg-69" value="&lt;font style=&quot;font-size: 14px;&quot; color=&quot;#9933ff&quot;&gt;&lt;b&gt;&lt;font style=&quot;border-color: var(--border-color); font-size: 14px;&quot;&gt;&lt;span style=&quot;border-color: var(--border-color);&quot;&gt;&lt;span style=&quot;border-color: var(--border-color); font-size: 14px;&quot;&gt;A =&amp;nbsp;&lt;u style=&quot;border-color: var(--border-color);&quot;&gt;a0&lt;/u&gt;&amp;nbsp;+ ...&lt;br style=&quot;border-color: var(--border-color);&quot;&gt;&lt;/span&gt;B =&amp;nbsp;&lt;u style=&quot;border-color: var(--border-color);&quot;&gt;b0&lt;/u&gt;&amp;nbsp;+ ...&lt;br style=&quot;border-color: var(--border-color);&quot;&gt;C =&amp;nbsp;&lt;u style=&quot;border-color: var(--border-color);&quot;&gt;c0&lt;/u&gt;&amp;nbsp;+ ...&lt;br style=&quot;border-color: var(--border-color);&quot;&gt;&lt;/span&gt;&lt;/font&gt;&lt;span style=&quot;border-color: var(--border-color); font-size: 14px;&quot;&gt;&lt;/span&gt;&lt;span style=&quot;border-color: var(--border-color); font-size: 14px;&quot;&gt;&lt;font style=&quot;border-color: var(--border-color); font-size: 14px;&quot;&gt;&lt;span style=&quot;border-color: var(--border-color);&quot;&gt;R =&amp;nbsp;&lt;u style=&quot;border-color: var(--border-color);&quot;&gt;a0+b0&lt;/u&gt;&amp;nbsp;+ c0 + ...&lt;br&gt;&lt;span style=&quot;white-space: pre;&quot;&gt;&#x9;&lt;/span&gt;C.Aj: a0, b0, c0&lt;br&gt;&lt;span style=&quot;white-space: pre;&quot;&gt;&#x9;&lt;/span&gt;NotNull: c0&lt;/span&gt;&lt;/font&gt;&lt;/span&gt;&lt;font style=&quot;font-size: 14px;&quot;&gt;&lt;font style=&quot;font-size: 14px;&quot;&gt;&lt;br&gt;&lt;span style=&quot;line-height: 107%;&quot;&gt;ASERCIÓN 1:&lt;/span&gt;&lt;span style=&quot;font-family: Arial, sans-serif;&quot;&gt;&amp;nbsp;A&amp;nbsp;&lt;/span&gt;&lt;span style=&quot;font-family: &amp;quot;Cambria Math&amp;quot;, serif;&quot;&gt;⊆&lt;/span&gt;&lt;span style=&quot;line-height: 107%;&quot;&gt;&amp;nbsp;R&lt;br&gt;&lt;/span&gt;&lt;/font&gt;ASERCIÓN 2:&lt;span style=&quot;border-color: var(--border-color); font-family: Arial, sans-serif;&quot;&gt;&amp;nbsp;B&amp;nbsp;&lt;/span&gt;&lt;span style=&quot;border-color: var(--border-color); font-family: &amp;quot;Cambria Math&amp;quot;, serif;&quot;&gt;⊆&lt;/span&gt;&lt;span style=&quot;border-color: var(--border-color); line-height: 16.05px;&quot;&gt;&amp;nbsp;R&lt;br&gt;&lt;/span&gt;&lt;/font&gt;&lt;span style=&quot;border-color: var(--border-color); font-size: 14px;&quot;&gt;ASERCIÓN 3: C&amp;nbsp;&lt;span style=&quot;border-color: var(--border-color); font-family: &amp;quot;Cambria Math&amp;quot;, serif;&quot;&gt;⊆&lt;/span&gt;&lt;span style=&quot;border-color: var(--border-color); line-height: 16.05px;&quot;&gt;&amp;nbsp;R&lt;/span&gt;&lt;/span&gt;&lt;/b&gt;&lt;/font&gt;&lt;span style=&quot;font-size: 14px;&quot;&gt;&lt;b&gt;&lt;br&gt;&lt;/b&gt;&lt;/span&gt;" style="text;strokeColor=none;fillColor=none;align=left;verticalAlign=middle;spacingLeft=4;spacingRight=4;overflow=hidden;points=[[0,0.5],[1,0.5]];portConstraint=eastwest;rotatable=0;whiteSpace=wrap;html=1;" vertex="1" parent="1">
          <mxGeometry x="350" y="913" width="200" height="160" as="geometry" />
        </mxCell>
        <mxCell id="xE5BTWYlB8bozgJy7pTg-70" value="" style="shape=link;html=1;rounded=0;exitX=1;exitY=0.5;exitDx=0;exitDy=0;" edge="1" parent="1" source="xE5BTWYlB8bozgJy7pTg-66" target="xE5BTWYlB8bozgJy7pTg-68">
          <mxGeometry relative="1" as="geometry">
            <mxPoint x="330" y="980" as="sourcePoint" />
            <mxPoint x="490" y="980" as="targetPoint" />
          </mxGeometry>
        </mxCell>
        <mxCell id="xE5BTWYlB8bozgJy7pTg-71" value="N" style="resizable=0;html=1;whiteSpace=wrap;align=right;verticalAlign=bottom;" connectable="0" vertex="1" parent="xE5BTWYlB8bozgJy7pTg-70">
          <mxGeometry x="1" relative="1" as="geometry" />
        </mxCell>
        <mxCell id="xE5BTWYlB8bozgJy7pTg-74" value="&lt;span style=&quot;font-size: 20px;&quot;&gt;&lt;b&gt;C&lt;/b&gt;&lt;/span&gt;" style="rounded=0;whiteSpace=wrap;html=1;fillColor=#fff2cc;strokeColor=#d6b656;" vertex="1" parent="1">
          <mxGeometry x="160" y="855" width="50" height="50" as="geometry" />
        </mxCell>
        <mxCell id="xE5BTWYlB8bozgJy7pTg-75" value="&lt;span style=&quot;font-size: 20px;&quot;&gt;&lt;b&gt;C&lt;/b&gt;&lt;/span&gt;" style="rounded=0;whiteSpace=wrap;html=1;fillColor=#fff2cc;strokeColor=#d6b656;" vertex="1" parent="1">
          <mxGeometry x="490" y="855" width="50" height="50" as="geometry" />
        </mxCell>
        <mxCell id="xE5BTWYlB8bozgJy7pTg-76" value="&lt;font color=&quot;#ff3333&quot;&gt;&lt;b&gt;Tantas aserciones como cardinalidades mínimas1.&lt;/b&gt;&lt;/font&gt;" style="text;strokeColor=none;fillColor=none;align=left;verticalAlign=middle;spacingLeft=4;spacingRight=4;overflow=hidden;points=[[0,0.5],[1,0.5]];portConstraint=eastwest;rotatable=0;whiteSpace=wrap;html=1;" vertex="1" parent="1">
          <mxGeometry x="550" y="1023" width="170" height="40" as="geometry" />
        </mxCell>
        <mxCell id="xE5BTWYlB8bozgJy7pTg-77" value="" style="endArrow=none;html=1;rounded=0;exitX=0.5;exitY=1;exitDx=0;exitDy=0;entryX=0.5;entryY=0;entryDx=0;entryDy=0;" edge="1" parent="1" source="xE5BTWYlB8bozgJy7pTg-60" target="xE5BTWYlB8bozgJy7pTg-74">
          <mxGeometry relative="1" as="geometry">
            <mxPoint x="330" y="826" as="sourcePoint" />
            <mxPoint x="490" y="826" as="targetPoint" />
          </mxGeometry>
        </mxCell>
        <mxCell id="xE5BTWYlB8bozgJy7pTg-78" value="1" style="resizable=0;html=1;whiteSpace=wrap;align=right;verticalAlign=bottom;" connectable="0" vertex="1" parent="xE5BTWYlB8bozgJy7pTg-77">
          <mxGeometry x="1" relative="1" as="geometry" />
        </mxCell>
        <mxCell id="xE5BTWYlB8bozgJy7pTg-79" value="" style="shape=link;html=1;rounded=0;entryX=0.5;entryY=0;entryDx=0;entryDy=0;exitX=0.5;exitY=1;exitDx=0;exitDy=0;" edge="1" parent="1" source="xE5BTWYlB8bozgJy7pTg-68" target="xE5BTWYlB8bozgJy7pTg-75">
          <mxGeometry relative="1" as="geometry">
            <mxPoint x="330" y="826" as="sourcePoint" />
            <mxPoint x="490" y="826" as="targetPoint" />
          </mxGeometry>
        </mxCell>
        <mxCell id="xE5BTWYlB8bozgJy7pTg-80" value="1" style="resizable=0;html=1;whiteSpace=wrap;align=right;verticalAlign=bottom;" connectable="0" vertex="1" parent="xE5BTWYlB8bozgJy7pTg-79">
          <mxGeometry x="1" relative="1" as="geometry" />
        </mxCell>
        <mxCell id="xE5BTWYlB8bozgJy7pTg-81" value="" style="shape=link;html=1;rounded=0;entryX=0;entryY=0.5;entryDx=0;entryDy=0;exitX=1;exitY=0.5;exitDx=0;exitDy=0;" edge="1" parent="1" source="xE5BTWYlB8bozgJy7pTg-68" target="xE5BTWYlB8bozgJy7pTg-67">
          <mxGeometry relative="1" as="geometry">
            <mxPoint x="525" y="830" as="sourcePoint" />
            <mxPoint x="525" y="865" as="targetPoint" />
          </mxGeometry>
        </mxCell>
        <mxCell id="xE5BTWYlB8bozgJy7pTg-82" value="1" style="resizable=0;html=1;whiteSpace=wrap;align=right;verticalAlign=bottom;" connectable="0" vertex="1" parent="xE5BTWYlB8bozgJy7pTg-81">
          <mxGeometry x="1" relative="1" as="geometry" />
        </mxCell>
        <mxCell id="xE5BTWYlB8bozgJy7pTg-83" value="" style="endArrow=none;html=1;rounded=0;exitX=1;exitY=0.5;exitDx=0;exitDy=0;entryX=0;entryY=0.5;entryDx=0;entryDy=0;" edge="1" parent="1" source="xE5BTWYlB8bozgJy7pTg-60" target="xE5BTWYlB8bozgJy7pTg-59">
          <mxGeometry relative="1" as="geometry">
            <mxPoint x="195" y="825" as="sourcePoint" />
            <mxPoint x="195" y="865" as="targetPoint" />
          </mxGeometry>
        </mxCell>
        <mxCell id="xE5BTWYlB8bozgJy7pTg-84" value="1" style="resizable=0;html=1;whiteSpace=wrap;align=right;verticalAlign=bottom;" connectable="0" vertex="1" parent="xE5BTWYlB8bozgJy7pTg-83">
          <mxGeometry x="1" relative="1" as="geometry" />
        </mxCell>
        <mxCell id="xE5BTWYlB8bozgJy7pTg-85" value="&lt;font style=&quot;font-size: 20px;&quot;&gt;&lt;b&gt;A&lt;/b&gt;&lt;/font&gt;" style="rounded=0;whiteSpace=wrap;html=1;fillColor=#d5e8d4;strokeColor=#82b366;" vertex="1" parent="1">
          <mxGeometry x="60" y="1109" width="50" height="50" as="geometry" />
        </mxCell>
        <mxCell id="xE5BTWYlB8bozgJy7pTg-86" value="&lt;span style=&quot;font-size: 20px;&quot;&gt;&lt;b&gt;B&lt;/b&gt;&lt;/span&gt;" style="rounded=0;whiteSpace=wrap;html=1;fillColor=#f8cecc;strokeColor=#b85450;" vertex="1" parent="1">
          <mxGeometry x="250" y="1109" width="50" height="50" as="geometry" />
        </mxCell>
        <mxCell id="xE5BTWYlB8bozgJy7pTg-87" value="&lt;font style=&quot;font-size: 20px;&quot;&gt;&lt;b&gt;R&lt;/b&gt;&lt;/font&gt;" style="shape=rhombus;perimeter=rhombusPerimeter;whiteSpace=wrap;html=1;align=center;fillColor=#f5f5f5;strokeColor=#666666;fontColor=#333333;" vertex="1" parent="1">
          <mxGeometry x="150" y="1104" width="70" height="60" as="geometry" />
        </mxCell>
        <mxCell id="xE5BTWYlB8bozgJy7pTg-90" value="&lt;span style=&quot;border-color: var(--border-color); font-size: 14px;&quot;&gt;&lt;font style=&quot;&quot; color=&quot;#9933ff&quot;&gt;&lt;b&gt;&lt;span style=&quot;border-color: var(--border-color);&quot;&gt;A = &lt;u style=&quot;&quot;&gt;a0&lt;/u&gt; + ...&lt;br&gt;&lt;/span&gt;B = &lt;u style=&quot;&quot;&gt;b0&lt;/u&gt; + ...&lt;br&gt;C = &lt;u style=&quot;&quot;&gt;c0&lt;/u&gt; + ...&lt;br&gt;&lt;/b&gt;&lt;/font&gt;&lt;/span&gt;&lt;span style=&quot;font-size: 14px;&quot;&gt;&lt;font style=&quot;&quot; color=&quot;#9933ff&quot;&gt;&lt;b&gt;R = &lt;u style=&quot;&quot;&gt;a0+b0&lt;/u&gt; + c0 + ...&lt;br&gt;&lt;span style=&quot;white-space: pre;&quot;&gt;&#x9;&lt;/span&gt;C.Aj: a0, b0, c0&lt;br&gt;&lt;span style=&quot;white-space: pre;&quot;&gt;&#x9;&lt;/span&gt;NotNull: c0&lt;/b&gt;&lt;/font&gt;&lt;br&gt;&lt;/span&gt;" style="text;strokeColor=none;fillColor=none;align=left;verticalAlign=middle;spacingLeft=4;spacingRight=4;overflow=hidden;points=[[0,0.5],[1,0.5]];portConstraint=eastwest;rotatable=0;whiteSpace=wrap;html=1;" vertex="1" parent="1">
          <mxGeometry x="61" y="1257" width="169" height="119" as="geometry" />
        </mxCell>
        <mxCell id="xE5BTWYlB8bozgJy7pTg-91" value="&lt;font style=&quot;font-size: 20px;&quot;&gt;&lt;b&gt;A&lt;/b&gt;&lt;/font&gt;" style="rounded=0;whiteSpace=wrap;html=1;fillColor=#d5e8d4;strokeColor=#82b366;" vertex="1" parent="1">
          <mxGeometry x="390" y="1114" width="50" height="50" as="geometry" />
        </mxCell>
        <mxCell id="xE5BTWYlB8bozgJy7pTg-92" value="&lt;span style=&quot;font-size: 20px;&quot;&gt;&lt;b&gt;B&lt;/b&gt;&lt;/span&gt;" style="rounded=0;whiteSpace=wrap;html=1;fillColor=#f8cecc;strokeColor=#b85450;" vertex="1" parent="1">
          <mxGeometry x="580" y="1114" width="50" height="50" as="geometry" />
        </mxCell>
        <mxCell id="xE5BTWYlB8bozgJy7pTg-93" value="&lt;font style=&quot;font-size: 20px;&quot;&gt;&lt;b&gt;R&lt;/b&gt;&lt;/font&gt;" style="shape=rhombus;perimeter=rhombusPerimeter;whiteSpace=wrap;html=1;align=center;fillColor=#f5f5f5;strokeColor=#666666;fontColor=#333333;" vertex="1" parent="1">
          <mxGeometry x="480" y="1109" width="70" height="60" as="geometry" />
        </mxCell>
        <mxCell id="xE5BTWYlB8bozgJy7pTg-94" value="&lt;font style=&quot;font-size: 14px;&quot; color=&quot;#9933ff&quot;&gt;&lt;b&gt;&lt;font style=&quot;border-color: var(--border-color); font-size: 14px;&quot;&gt;&lt;span style=&quot;border-color: var(--border-color);&quot;&gt;&lt;span style=&quot;border-color: var(--border-color); font-size: 14px;&quot;&gt;A =&amp;nbsp;&lt;u style=&quot;border-color: var(--border-color);&quot;&gt;a0&lt;/u&gt;&amp;nbsp;+ ...&lt;br style=&quot;border-color: var(--border-color);&quot;&gt;&lt;/span&gt;B =&amp;nbsp;&lt;u style=&quot;border-color: var(--border-color);&quot;&gt;b0&lt;/u&gt;&amp;nbsp;+ ...&lt;br style=&quot;border-color: var(--border-color);&quot;&gt;C =&amp;nbsp;&lt;u style=&quot;border-color: var(--border-color);&quot;&gt;c0&lt;/u&gt;&amp;nbsp;+ ...&lt;br style=&quot;border-color: var(--border-color);&quot;&gt;&lt;/span&gt;&lt;/font&gt;&lt;span style=&quot;border-color: var(--border-color); font-size: 14px;&quot;&gt;&lt;/span&gt;&lt;span style=&quot;border-color: var(--border-color); font-size: 14px;&quot;&gt;&lt;font style=&quot;border-color: var(--border-color); font-size: 14px;&quot;&gt;&lt;span style=&quot;border-color: var(--border-color);&quot;&gt;R =&amp;nbsp;&lt;u style=&quot;border-color: var(--border-color);&quot;&gt;a0+b0&lt;/u&gt;&amp;nbsp;+ c0 + ...&lt;br&gt;&lt;span style=&quot;white-space: pre;&quot;&gt;&#x9;&lt;/span&gt;C.Aj: a0, b0, c0&lt;br&gt;&lt;span style=&quot;white-space: pre;&quot;&gt;&#x9;&lt;/span&gt;NotNull: c0&lt;/span&gt;&lt;/font&gt;&lt;/span&gt;&lt;font style=&quot;font-size: 14px;&quot;&gt;&lt;font style=&quot;font-size: 14px;&quot;&gt;&lt;br&gt;&lt;span style=&quot;line-height: 107%;&quot;&gt;ASERCIÓN 1:&lt;/span&gt;&lt;span style=&quot;font-family: Arial, sans-serif;&quot;&gt;&amp;nbsp;A&amp;nbsp;&lt;/span&gt;&lt;span style=&quot;font-family: &amp;quot;Cambria Math&amp;quot;, serif;&quot;&gt;⊆&lt;/span&gt;&lt;span style=&quot;line-height: 107%;&quot;&gt;&amp;nbsp;R&lt;br&gt;&lt;/span&gt;&lt;/font&gt;ASERCIÓN 2:&lt;span style=&quot;border-color: var(--border-color); font-family: Arial, sans-serif;&quot;&gt;&amp;nbsp;B&amp;nbsp;&lt;/span&gt;&lt;span style=&quot;border-color: var(--border-color); font-family: &amp;quot;Cambria Math&amp;quot;, serif;&quot;&gt;⊆&lt;/span&gt;&lt;span style=&quot;border-color: var(--border-color); line-height: 16.05px;&quot;&gt;&amp;nbsp;R&lt;br&gt;&lt;/span&gt;&lt;/font&gt;&lt;span style=&quot;border-color: var(--border-color); font-size: 14px;&quot;&gt;ASERCIÓN 3: C&amp;nbsp;&lt;span style=&quot;border-color: var(--border-color); font-family: &amp;quot;Cambria Math&amp;quot;, serif;&quot;&gt;⊆&lt;/span&gt;&lt;span style=&quot;border-color: var(--border-color); line-height: 16.05px;&quot;&gt;&amp;nbsp;R&lt;/span&gt;&lt;/span&gt;&lt;/b&gt;&lt;/font&gt;&lt;span style=&quot;font-size: 14px;&quot;&gt;&lt;b&gt;&lt;br&gt;&lt;/b&gt;&lt;/span&gt;" style="text;strokeColor=none;fillColor=none;align=left;verticalAlign=middle;spacingLeft=4;spacingRight=4;overflow=hidden;points=[[0,0.5],[1,0.5]];portConstraint=eastwest;rotatable=0;whiteSpace=wrap;html=1;" vertex="1" parent="1">
          <mxGeometry x="350" y="1262" width="200" height="160" as="geometry" />
        </mxCell>
        <mxCell id="xE5BTWYlB8bozgJy7pTg-97" value="&lt;span style=&quot;font-size: 20px;&quot;&gt;&lt;b&gt;C&lt;/b&gt;&lt;/span&gt;" style="rounded=0;whiteSpace=wrap;html=1;fillColor=#fff2cc;strokeColor=#d6b656;" vertex="1" parent="1">
          <mxGeometry x="160" y="1204" width="50" height="50" as="geometry" />
        </mxCell>
        <mxCell id="xE5BTWYlB8bozgJy7pTg-98" value="&lt;span style=&quot;font-size: 20px;&quot;&gt;&lt;b&gt;C&lt;/b&gt;&lt;/span&gt;" style="rounded=0;whiteSpace=wrap;html=1;fillColor=#fff2cc;strokeColor=#d6b656;" vertex="1" parent="1">
          <mxGeometry x="490" y="1204" width="50" height="50" as="geometry" />
        </mxCell>
        <mxCell id="xE5BTWYlB8bozgJy7pTg-99" value="&lt;font color=&quot;#ff3333&quot;&gt;&lt;b&gt;Tantas aserciones como cardinalidades mínimas1.&lt;/b&gt;&lt;/font&gt;" style="text;strokeColor=none;fillColor=none;align=left;verticalAlign=middle;spacingLeft=4;spacingRight=4;overflow=hidden;points=[[0,0.5],[1,0.5]];portConstraint=eastwest;rotatable=0;whiteSpace=wrap;html=1;" vertex="1" parent="1">
          <mxGeometry x="550" y="1372" width="170" height="40" as="geometry" />
        </mxCell>
        <mxCell id="xE5BTWYlB8bozgJy7pTg-100" value="" style="endArrow=none;html=1;rounded=0;exitX=0.5;exitY=1;exitDx=0;exitDy=0;entryX=0.5;entryY=0;entryDx=0;entryDy=0;" edge="1" parent="1" source="xE5BTWYlB8bozgJy7pTg-87" target="xE5BTWYlB8bozgJy7pTg-97">
          <mxGeometry relative="1" as="geometry">
            <mxPoint x="330" y="1175" as="sourcePoint" />
            <mxPoint x="490" y="1175" as="targetPoint" />
          </mxGeometry>
        </mxCell>
        <mxCell id="xE5BTWYlB8bozgJy7pTg-101" value="1" style="resizable=0;html=1;whiteSpace=wrap;align=right;verticalAlign=bottom;" connectable="0" vertex="1" parent="xE5BTWYlB8bozgJy7pTg-100">
          <mxGeometry x="1" relative="1" as="geometry" />
        </mxCell>
        <mxCell id="xE5BTWYlB8bozgJy7pTg-102" value="" style="shape=link;html=1;rounded=0;entryX=0.5;entryY=0;entryDx=0;entryDy=0;exitX=0.5;exitY=1;exitDx=0;exitDy=0;" edge="1" parent="1" source="xE5BTWYlB8bozgJy7pTg-93" target="xE5BTWYlB8bozgJy7pTg-98">
          <mxGeometry relative="1" as="geometry">
            <mxPoint x="330" y="1175" as="sourcePoint" />
            <mxPoint x="490" y="1175" as="targetPoint" />
          </mxGeometry>
        </mxCell>
        <mxCell id="xE5BTWYlB8bozgJy7pTg-103" value="1" style="resizable=0;html=1;whiteSpace=wrap;align=right;verticalAlign=bottom;" connectable="0" vertex="1" parent="xE5BTWYlB8bozgJy7pTg-102">
          <mxGeometry x="1" relative="1" as="geometry" />
        </mxCell>
        <mxCell id="xE5BTWYlB8bozgJy7pTg-104" value="" style="shape=link;html=1;rounded=0;entryX=0;entryY=0.5;entryDx=0;entryDy=0;exitX=1;exitY=0.5;exitDx=0;exitDy=0;" edge="1" parent="1" source="xE5BTWYlB8bozgJy7pTg-93" target="xE5BTWYlB8bozgJy7pTg-92">
          <mxGeometry relative="1" as="geometry">
            <mxPoint x="525" y="1179" as="sourcePoint" />
            <mxPoint x="525" y="1214" as="targetPoint" />
          </mxGeometry>
        </mxCell>
        <mxCell id="xE5BTWYlB8bozgJy7pTg-105" value="1" style="resizable=0;html=1;whiteSpace=wrap;align=right;verticalAlign=bottom;" connectable="0" vertex="1" parent="xE5BTWYlB8bozgJy7pTg-104">
          <mxGeometry x="1" relative="1" as="geometry" />
        </mxCell>
        <mxCell id="xE5BTWYlB8bozgJy7pTg-106" value="" style="endArrow=none;html=1;rounded=0;exitX=1;exitY=0.5;exitDx=0;exitDy=0;entryX=0;entryY=0.5;entryDx=0;entryDy=0;" edge="1" parent="1" source="xE5BTWYlB8bozgJy7pTg-87" target="xE5BTWYlB8bozgJy7pTg-86">
          <mxGeometry relative="1" as="geometry">
            <mxPoint x="195" y="1174" as="sourcePoint" />
            <mxPoint x="195" y="1214" as="targetPoint" />
          </mxGeometry>
        </mxCell>
        <mxCell id="xE5BTWYlB8bozgJy7pTg-107" value="1" style="resizable=0;html=1;whiteSpace=wrap;align=right;verticalAlign=bottom;" connectable="0" vertex="1" parent="xE5BTWYlB8bozgJy7pTg-106">
          <mxGeometry x="1" relative="1" as="geometry" />
        </mxCell>
        <mxCell id="xE5BTWYlB8bozgJy7pTg-108" value="" style="shape=link;html=1;rounded=0;entryX=0;entryY=0.5;entryDx=0;entryDy=0;exitX=1;exitY=0.5;exitDx=0;exitDy=0;" edge="1" parent="1" source="xE5BTWYlB8bozgJy7pTg-91" target="xE5BTWYlB8bozgJy7pTg-93">
          <mxGeometry relative="1" as="geometry">
            <mxPoint x="525" y="1179" as="sourcePoint" />
            <mxPoint x="525" y="1214" as="targetPoint" />
          </mxGeometry>
        </mxCell>
        <mxCell id="xE5BTWYlB8bozgJy7pTg-109" value="1" style="resizable=0;html=1;whiteSpace=wrap;align=right;verticalAlign=bottom;" connectable="0" vertex="1" parent="xE5BTWYlB8bozgJy7pTg-108">
          <mxGeometry x="1" relative="1" as="geometry" />
        </mxCell>
        <mxCell id="xE5BTWYlB8bozgJy7pTg-110" value="" style="endArrow=none;html=1;rounded=0;exitX=1;exitY=0.5;exitDx=0;exitDy=0;entryX=0;entryY=0.5;entryDx=0;entryDy=0;" edge="1" parent="1" source="xE5BTWYlB8bozgJy7pTg-85" target="xE5BTWYlB8bozgJy7pTg-87">
          <mxGeometry relative="1" as="geometry">
            <mxPoint x="195" y="1174" as="sourcePoint" />
            <mxPoint x="195" y="1214" as="targetPoint" />
          </mxGeometry>
        </mxCell>
        <mxCell id="xE5BTWYlB8bozgJy7pTg-111" value="1" style="resizable=0;html=1;whiteSpace=wrap;align=right;verticalAlign=bottom;" connectable="0" vertex="1" parent="xE5BTWYlB8bozgJy7pTg-110">
          <mxGeometry x="1" relative="1" as="geometry" />
        </mxCell>
      </root>
    </mxGraphModel>
  </diagram>
</mxfile>
